<?xml version="1.0" standalone="no"?><!DOCTYPE svg PUBLIC "-//W3C//DTD SVG 1.1//EN" "http://www.w3.org/Graphics/SVG/1.1/DTD/svg11.dtd"><svg t="1588873192232" class="icon" viewBox="0 0 1024 1024" version="1.1" xmlns="http://www.w3.org/2000/svg" p-id="1301" xmlns:xlink="http://www.w3.org/1999/xlink" width="200" height="200"><defs><style type="text/css"></style></defs><path d="M512 128q69.674667 0 135.509333 21.162667t115.498667 54.997333 93.482667 74.837333 73.685333 82.005333 51.669333 74.837333 32.170667 54.826667l9.984 21.333333q-2.346667 4.992-6.314667 13.482667t-18.816 34.688-31.658667 51.669333-44.330667 59.989333-56.832 64.341333-69.504 60.16-82.346667 51.498667-94.848 34.688-107.349333 13.482667q-69.674667 0-135.509333-21.162667t-115.498667-54.826667-93.482667-74.325333-73.685333-81.493333-51.669333-74.496-32.170667-54.997333l-9.984-20.992q2.346667-4.992 6.314667-13.482667t18.816-34.816 31.658667-51.84 44.330667-60.330667 56.832-64.682667 69.504-60.330667 82.346667-51.84 94.848-34.816 107.349333-13.482667zM512 213.333333q-46.677333 0-91.648 12.330667t-81.152 31.829333-70.656 47.146667-59.648 54.485333-48.853333 57.685333-37.674667 52.821333-26.325333 43.989333q12.330667 21.674667 26.325333 43.52t37.674667 52.352 48.853333 57.002667 59.648 53.845333 70.656 46.677333 81.152 31.488 91.648 12.16 91.648-12.330667 81.152-31.658667 70.656-46.848 59.648-54.186667 48.853333-57.344 37.674667-52.650667 26.325333-43.648q-12.330667-21.674667-26.325333-43.648t-37.674667-52.650667-48.853333-57.344-59.648-54.186667-70.656-46.848-81.152-31.658667-91.648-12.330667zM512 341.333333q70.656 0 120.661333 50.005333t50.005333 120.661333-50.005333 120.661333-120.661333 50.005333-120.661333-50.005333-50.005333-120.661333 50.005333-120.661333 120.661333-50.005333zM512 426.666667q-35.328 0-60.330667 25.002667t-25.002667 60.330667 25.002667 60.330667 60.330667 25.002667 60.330667-25.002667 25.002667-60.330667-25.002667-60.330667-60.330667-25.002667z" p-id="1302"></path></svg>